<?xml version="1.0" encoding="UTF-8" standalone="no"?>
<svg
   xmlns:xhtml="http://www.w3.org/1999/xhtml/vocab#"
   xmlns:rdfs="http://www.w3.org/2000/01/rdf-schema#"
   xmlns:dc="http://purl.org/dc/elements/1.1/"
   xmlns:cc="http://creativecommons.org/ns#"
   xmlns:rdf="http://www.w3.org/1999/02/22-rdf-syntax-ns#"
   xmlns:svg="http://www.w3.org/2000/svg"
   xmlns="http://www.w3.org/2000/svg"
   xmlns:xlink="http://www.w3.org/1999/xlink"
   xmlns:sodipodi="http://sodipodi.sourceforge.net/DTD/sodipodi-0.dtd"
   xmlns:inkscape="http://www.inkscape.org/namespaces/inkscape"
   viewBox="0 0 160 82"
   id="svg3118"
   version="1.1"
   inkscape:version="0.48.2 r9819"
   width="100%"
   height="100%"
   sodipodi:docname="phpSVG.svg">
  <sodipodi:namedview
     pagecolor="#ffffff"
     bordercolor="#666666"
     borderopacity="1"
     objecttolerance="10"
     gridtolerance="10"
     guidetolerance="10"
     inkscape:pageopacity="0"
     inkscape:pageshadow="2"
     inkscape:window-width="1366"
     inkscape:window-height="706"
     id="namedview3156"
     showgrid="false"
     inkscape:zoom="2.264"
     inkscape:cx="114.84026"
     inkscape:cy="14.768111"
     inkscape:window-x="-8"
     inkscape:window-y="-8"
     inkscape:window-maximized="1"
     inkscape:current-layer="svg3118" />
  <title
     id="title3120">SVG logo combined with the W3C logo, set horizontally</title>
  <desc
     id="desc3122">The logo combines three entities displayed horizontally: the W3C logo with the text 'W3C'; the drawing of a flower or star shape with eight arms; and the text 'SVG'. These three entities are set horizontally.</desc>
  <metadata
     id="metadata3124">
    <rdf:RDF>
      <cc:Work
         rdf:about="">
        <dc:title>SVG logo combined with the W3C logo, set horizontally</dc:title>
        <dc:format>image/svg+xml</dc:format>
        <rdfs:seeAlso
           rdf:resource="http://www.w3.org/2007/10/sw-logos.html" />
        <dc:date>2007-11-01</dc:date>
        <xhtml:license
           rdf:resource="http://www.w3.org/Consortium/Legal/2002/copyright-documents-20021231" />
        <cc:morePermissions
           rdf:resource="http://www.w3.org/2007/10/sw-logos.html#LogoWithW3C" />
        <cc:attributionURL
           rdf:reource="http://www.w3.org/2001/sw/" />
        <dc:description>The logo combines three entities displayed horizontally: the W3C logo with the text 'W3C'; the drawing of a flower or star shape with eight arms; and the text 'SVG'. These three entities are set horizontally.
			</dc:description>
        <dc:type
           rdf:resource="http://purl.org/dc/dcmitype/StillImage" />
      </cc:Work>
    </rdf:RDF>
  </metadata>
  <defs
     id="defs3130">
    <g
       id="SVG">
      <path
         id="S"
         d="M 5.482,31.319 C 2.163,28.001 0.109,23.419 0.109,18.358 0.109,8.232 8.322,0.024 18.443,0.024 c 10.126,0 18.339,8.208 18.339,18.334 l -10.74,0 c 0,-4.194 -3.404,-7.593 -7.599,-7.593 -4.194,0 -7.593,3.399 -7.593,7.593 0,2.095 0.851,3.993 2.22,5.363 l 0.005,0 c 1.375,1.38 2.52,1.779 5.368,2.231 l 0,0 c 5.066,0.527 9.648,2.054 12.966,5.372 l 0,0 c 3.319,3.319 5.373,7.901 5.373,12.962 0,10.126 -8.213,18.339 -18.339,18.339 -10.121,0 -18.334,-8.213 -18.334,-18.339 l 10.741,0 c 0,4.194 3.399,7.598 7.593,7.598 4.195,0 7.599,-3.404 7.599,-7.598 0,-2.095 -0.851,-3.988 -2.221,-5.363 l -0.005,0 c -1.375,-1.375 -3.348,-1.849 -5.373,-2.226 l 0,-0.005 C 13.533,35.939 8.8,34.638 5.482,31.319 l 0,0 0,0 z"
         inkscape:connector-curvature="0" />
      <path
         id="V"
         d="m 73.452,0.024 -12.97,62.601 -10.74,0 -12.96,-62.601 10.74,0 7.6,36.663 7.59,-36.663 10.74,0 z"
         inkscape:connector-curvature="0" />
      <path
         id="G"
         d="m 91.792,25.952 18.334,0 0,18.334 0.005,0 c 0,10.127 -8.213,18.34 -18.339,18.34 -10.127,0 -18.334,-8.213 -18.334,-18.34 l 0,0 0,-25.927 -0.005,0 c 0,-10.126 8.212,-18.334 18.339,-18.334 10.121,0 18.334,8.208 18.334,18.334 l -10.741,0 c 0,-4.19 -3.404,-7.594 -7.593,-7.594 -4.195,0 -7.594,3.404 -7.594,7.594 l 0,25.927 0,0 c 0,4.195 3.399,7.594 7.594,7.594 4.189,0 7.588,-3.399 7.593,-7.589 l 0,-0.005 0,-7.588 -7.593,0 0,-10.746 0,0 z"
         inkscape:connector-curvature="0" />
    </g>
    <radialGradient
       gradientTransform="matrix(1.509,0,0,1.358,-39.03,76.96)"
       gradientUnits="userSpaceOnUse"
       xlink:href="#linearGradient3798"
       id="radialGradient3870"
       fy="-48.544521"
       fx="77.914261"
       r="146"
       cy="-48.544521"
       cx="77.914261" />
    <linearGradient
       gradientUnits="userSpaceOnUse"
       id="linearGradient3798"
       y2="84"
       x2="299"
       y1="84"
       x1="150">
      <stop
         offset="0"
         style="stop-color:#dddce9;stop-opacity:1"
         id="stop3800" />
      <stop
         offset="0.37"
         style="stop-color:#5664a3;stop-opacity:1"
         id="stop3802" />
      <stop
         offset="1"
         style="stop-color:#000000;stop-opacity:1"
         id="stop3804" />
    </linearGradient>
    <radialGradient
       inkscape:collect="always"
       xlink:href="#linearGradient3798"
       id="radialGradient4253"
       gradientUnits="userSpaceOnUse"
       gradientTransform="matrix(1.509,0,0,1.358,-39.03,76.96)"
       cx="77.914261"
       cy="-48.544521"
       fx="77.914261"
       fy="-48.544521"
       r="146" />
    <radialGradient
       inkscape:collect="always"
       xlink:href="#linearGradient3798"
       id="radialGradient3853"
       gradientUnits="userSpaceOnUse"
       gradientTransform="matrix(1.509,0,0,1.358,-39.03,76.96)"
       cx="77.914261"
       cy="-48.544521"
       fx="77.914261"
       fy="-48.544521"
       r="146" />
  </defs>
  <g
     id="g3827"
     transform="translate(1.246252,-0.7773041)">
    <ellipse
       inkscape:export-ydpi="90"
       inkscape:export-xdpi="90"
       inkscape:export-filename="/home/trialforce/svn/phpsvg/example/output/phpsvg.png"
       transform="matrix(0.50204509,0,0,0.50204509,7.3827541,1.6136969)"
       style="fill:#6c7eb7;stroke:url(#radialGradient3853);stroke-width:5.5"
       id="ellipse3860"
       ry="76"
       rx="146"
       cy="80"
       cx="150"
       sodipodi:cx="150"
       sodipodi:cy="80"
       sodipodi:rx="146"
       sodipodi:ry="76"
       d="m 296,80 c 0,41.97364 -65.36643,76 -146,76 C 69.366427,156 4,121.97364 4,80 4,38.026359 69.366427,4 150,4 230.63357,4 296,38.026359 296,80 z" />
    <g
       style="fill:#ffffff"
       transform="matrix(0.14280333,0,0,0.14280333,-1.0849152,1.31635)"
       id="logo">
      <g
         style="fill:#ffffff;stroke:#000000;stroke-width:38.00859833"
         id="g3141">
        <g
           style="fill:#ffffff"
           transform="translate(150,150)"
           id="svgstar">
          <path
             style="fill:#ffffff"
             inkscape:connector-curvature="0"
             d="m -84.15,-15.85 a 22.42,22.42 0 1 0 0,31.7 h 168.3 a 22.42,22.42 0 1 0 0,-31.7 z"
             id="svgbar" />
          <use
             style="fill:#ffffff"
             height="82"
             width="195"
             y="0"
             x="0"
             id="use3145"
             transform="matrix(0.7071,0.7071,-0.7071,0.7071,0,0)"
             xlink:href="#svgbar" />
          <use
             style="fill:#ffffff"
             height="82"
             width="195"
             y="0"
             x="0"
             id="use3147"
             transform="matrix(0,1,-1,0,0,0)"
             xlink:href="#svgbar" />
          <use
             style="fill:#ffffff"
             height="82"
             width="195"
             y="0"
             x="0"
             id="use3149"
             transform="matrix(-0.7071,0.7071,-0.7071,-0.7071,0,0)"
             xlink:href="#svgbar" />
        </g>
      </g>
      <use
         style="fill:#ffffff"
         height="82"
         width="195"
         y="0"
         x="0"
         id="use3151"
         xlink:href="#svgstar" />
    </g>
    <g
       transform="matrix(1.1225701,0,0,1.1225701,-7.4257242,-7.5477915)"
       id="g3811">
      <g
         transform="matrix(0.66862929,0,0,1.0049522,-14.23674,11.129961)"
         style="font-size:32.64030075px;font-style:normal;font-weight:bold;line-height:125%;letter-spacing:0px;word-spacing:0px;fill:#000000;fill-opacity:1;stroke:#000000;stroke-width:5.75806522;stroke-linecap:round;stroke-linejoin:round;stroke-miterlimit:4;stroke-opacity:1;stroke-dasharray:none;font-family:Sans;-inkscape-font-specification:Sans Bold"
         id="g3029">
        <path
           d="m 84.1,42.76 -1.83,9.37 -5.74,0 4.8,-24.64 5.74,0 -0.53,2.61 c 0.87,-1.04 1.79,-1.81 2.74,-2.29 0.96,-0.5 2.01,-0.75 3.14,-0.75 2.01,0 3.6,0.63 4.77,1.91 1.17,1.27 1.75,3.01 1.75,5.21 0,1.37 -0.21,2.7 -0.62,4 -0.4,1.3 -0.99,2.48 -1.75,3.54 -0.97,1.34 -2.06,2.35 -3.29,3.04 -1.21,0.69 -2.51,1.04 -3.9,1.04 -1.22,0 -2.26,-0.25 -3.12,-0.73 -0.85,-0.5 -1.57,-1.27 -2.16,-2.31 m 6,-11.56 c -1.47,0 -2.67,0.68 -3.61,2.04 -0.92,1.35 -1.38,3.11 -1.38,5.28 0,0.97 0.26,1.74 0.78,2.31 0.53,0.55 1.26,0.83 2.2,0.83 1.43,0 2.62,-0.67 3.55,-2 0.94,-1.34 1.4,-3.05 1.4,-5.13 0,-1.08 -0.25,-1.91 -0.76,-2.47 -0.5,-0.57 -1.23,-0.86 -2.18,-0.86"
           style="font-style:italic;fill:#000000;fill-opacity:1;stroke:#000000;stroke-width:5.75806522;stroke-linecap:round;stroke-linejoin:round;stroke-miterlimit:4;stroke-opacity:1;stroke-dasharray:none;-inkscape-font-specification:Sans Bold Italic"
           id="path3031"
           inkscape:connector-curvature="0" />
        <path
           d="m 121.3,34.47 -2.1,10.87 -5.7,0 1.8,-9.31 c 0.1,-0.61 0.2,-1.12 0.2,-1.53 0.1,-0.43 0.2,-0.76 0.2,-1 0,-0.68 -0.2,-1.21 -0.6,-1.58 -0.4,-0.37 -0.9,-0.56 -1.6,-0.56 -1.2,0 -2.2,0.46 -3.1,1.39 -0.8,0.91 -1.4,2.18 -1.7,3.81 l -1.7,8.78 -5.7,0 4.8,-24.8 5.7,0 -1.9,9.56 c 1.1,-1.03 2.1,-1.79 3.2,-2.29 1.1,-0.5 2.2,-0.75 3.3,-0.75 1.7,0 3,0.43 3.9,1.29 0.8,0.86 1.3,2.07 1.3,3.63 0,0.34 0,0.72 -0.1,1.13 0,0.42 -0.1,0.87 -0.2,1.36"
           style="font-style:italic;fill:#000000;fill-opacity:1;stroke:#000000;stroke-width:5.75806522;stroke-linecap:round;stroke-linejoin:round;stroke-miterlimit:4;stroke-opacity:1;stroke-dasharray:none;-inkscape-font-specification:Sans Bold Italic"
           id="path3033"
           inkscape:connector-curvature="0" />
        <path
           d="m 130.8,42.76 -1.9,9.37 -5.7,0 4.8,-24.64 5.7,0 -0.5,2.61 c 0.9,-1.04 1.8,-1.81 2.7,-2.29 1,-0.5 2.1,-0.75 3.2,-0.75 2,0 3.6,0.63 4.8,1.91 1.1,1.27 1.7,3.01 1.7,5.21 0,1.37 -0.2,2.7 -0.6,4 -0.4,1.3 -1,2.48 -1.8,3.54 -0.9,1.34 -2,2.35 -3.3,3.04 -1.2,0.69 -2.5,1.04 -3.9,1.04 -1.2,0 -2.2,-0.25 -3.1,-0.73 -0.8,-0.5 -1.5,-1.27 -2.1,-2.31 m 6,-11.56 c -1.5,0 -2.7,0.68 -3.6,2.04 -1,1.35 -1.4,3.11 -1.4,5.28 0,0.97 0.2,1.74 0.8,2.31 0.5,0.55 1.2,0.83 2.2,0.83 1.4,0 2.6,-0.67 3.5,-2 0.9,-1.34 1.4,-3.05 1.4,-5.13 0,-1.08 -0.2,-1.91 -0.8,-2.47 -0.5,-0.57 -1.2,-0.86 -2.1,-0.86"
           style="font-style:italic;fill:#000000;fill-opacity:1;stroke:#000000;stroke-width:5.75806522;stroke-linecap:round;stroke-linejoin:round;stroke-miterlimit:4;stroke-opacity:1;stroke-dasharray:none;-inkscape-font-specification:Sans Bold Italic"
           id="path3035"
           inkscape:connector-curvature="0" />
        <path
           d="m 168.6,22.29 -1,5.04 c -1.2,-0.6 -2.4,-1.04 -3.5,-1.33 -1.2,-0.29 -2.3,-0.44 -3.4,-0.44 -1.6,0 -2.8,0.24 -3.6,0.72 -0.9,0.47 -1.3,1.14 -1.3,1.99 0,0.54 0.2,0.96 0.5,1.27 0.4,0.3 1.2,0.59 2.4,0.88 l 2.5,0.62 c 2.1,0.53 3.7,1.3 4.6,2.31 1,1 1.5,2.3 1.5,3.89 0,2.58 -1,4.65 -2.9,6.22 -2,1.56 -4.6,2.34 -7.9,2.34 -1.6,0 -3.1,-0.14 -4.6,-0.43 -1.5,-0.29 -3,-0.71 -4.5,-1.28 l 1,-5.18 c 1.4,0.82 2.8,1.43 4.1,1.84 1.3,0.4 2.6,0.6 3.9,0.6 1.4,0 2.6,-0.28 3.5,-0.86 0.8,-0.57 1.3,-1.3 1.3,-2.2 0,-0.58 -0.2,-1.03 -0.6,-1.35 -0.4,-0.33 -1.3,-0.67 -2.6,-1.01 l -2.5,-0.62 c -1.8,-0.45 -3.2,-1.18 -4.1,-2.17 -0.9,-0.98 -1.4,-2.26 -1.4,-3.84 0,-2.47 1,-4.45 2.9,-5.94 1.9,-1.5 4.4,-2.25 7.6,-2.25 1.3,0 2.6,0.1 4,0.3 1.3,0.2 2.7,0.49 4.1,0.88"
           style="font-style:italic;fill:#000000;fill-opacity:1;stroke:#000000;stroke-width:5.75806522;stroke-linecap:round;stroke-linejoin:round;stroke-miterlimit:4;stroke-opacity:1;stroke-dasharray:none;-inkscape-font-specification:Sans Bold Italic"
           id="path3037"
           inkscape:connector-curvature="0" />
        <path
           d="m 172.9,21.54 5.9,0 2.9,17.79 9.8,-17.79 6.4,0 -13.5,23.8 -7.3,0 -4.2,-23.8"
           style="font-style:italic;fill:#000000;fill-opacity:1;stroke:#000000;stroke-width:5.75806522;stroke-linecap:round;stroke-linejoin:round;stroke-miterlimit:4;stroke-opacity:1;stroke-dasharray:none;-inkscape-font-specification:Sans Bold Italic"
           id="path3039"
           inkscape:connector-curvature="0" />
        <path
           d="m 217.9,43.57 c -1.5,0.75 -3.1,1.32 -4.8,1.69 -1.7,0.36 -3.5,0.54 -5.4,0.54 -3.3,0 -6,-0.86 -7.9,-2.57 -2,-1.72 -2.9,-4.06 -2.9,-7.03 0,-1.92 0.3,-3.72 0.9,-5.4 0.6,-1.69 1.5,-3.23 2.7,-4.62 1.4,-1.7 3.2,-2.97 5.2,-3.81 2,-0.84 4.2,-1.26 6.8,-1.26 1.4,0 2.9,0.15 4.3,0.45 1.4,0.3 2.9,0.74 4.3,1.32 l -1,4.93 c -1.3,-0.76 -2.5,-1.32 -3.8,-1.69 -1.2,-0.38 -2.5,-0.56 -3.7,-0.56 -2.7,0 -5,0.91 -6.7,2.74 -1.7,1.83 -2.6,4.18 -2.6,7.04 0,1.91 0.5,3.38 1.5,4.43 1,1.06 2.4,1.58 4.3,1.58 0.6,0 1.2,0 1.8,-0.11 0.6,-0.1 1.2,-0.21 1.8,-0.38 l 0.9,-4.62 -3.8,0 0.8,-4.12 9.5,0 -2.2,11.45"
           style="font-style:italic;fill:#000000;fill-opacity:1;stroke:#000000;stroke-width:5.75806522;stroke-linecap:round;stroke-linejoin:round;stroke-miterlimit:4;stroke-opacity:1;stroke-dasharray:none;-inkscape-font-specification:Sans Bold Italic"
           id="path3041"
           inkscape:connector-curvature="0" />
      </g>
      <g
         id="text4260"
         style="font-size:32.64030075px;font-style:normal;font-weight:bold;line-height:125%;letter-spacing:0px;word-spacing:0px;fill:#ffffff;fill-opacity:1;stroke:none;font-family:Sans;-inkscape-font-specification:Sans Bold"
         transform="matrix(0.66862929,0,0,1.0049522,-14.23674,11.129961)">
        <path
           inkscape:connector-curvature="0"
           id="path4279"
           style="font-style:italic;fill:#ffffff;-inkscape-font-specification:Sans Bold Italic"
           d="m 84.1,42.76 -1.83,9.37 -5.74,0 4.8,-24.64 5.74,0 -0.53,2.61 c 0.87,-1.04 1.79,-1.81 2.74,-2.29 0.96,-0.5 2.01,-0.75 3.14,-0.75 2.01,0 3.6,0.63 4.77,1.91 1.17,1.27 1.75,3.01 1.75,5.21 0,1.37 -0.21,2.7 -0.62,4 -0.4,1.3 -0.99,2.48 -1.75,3.54 -0.97,1.34 -2.06,2.35 -3.29,3.04 -1.21,0.69 -2.51,1.04 -3.9,1.04 -1.22,0 -2.26,-0.25 -3.12,-0.73 -0.85,-0.5 -1.57,-1.27 -2.16,-2.31 m 6,-11.56 c -1.47,0 -2.67,0.68 -3.61,2.04 -0.92,1.35 -1.38,3.11 -1.38,5.28 0,0.97 0.26,1.74 0.78,2.31 0.53,0.55 1.26,0.83 2.2,0.83 1.43,0 2.62,-0.67 3.55,-2 0.94,-1.34 1.4,-3.05 1.4,-5.13 0,-1.08 -0.25,-1.91 -0.76,-2.47 -0.5,-0.57 -1.23,-0.86 -2.18,-0.86" />
        <path
           inkscape:connector-curvature="0"
           id="path4281"
           style="font-style:italic;fill:#ffffff;-inkscape-font-specification:Sans Bold Italic"
           d="m 121.3,34.47 -2.1,10.87 -5.7,0 1.8,-9.31 c 0.1,-0.61 0.2,-1.12 0.2,-1.53 0.1,-0.43 0.2,-0.76 0.2,-1 0,-0.68 -0.2,-1.21 -0.6,-1.58 -0.4,-0.37 -0.9,-0.56 -1.6,-0.56 -1.2,0 -2.2,0.46 -3.1,1.39 -0.8,0.91 -1.4,2.18 -1.7,3.81 l -1.7,8.78 -5.7,0 4.8,-24.8 5.7,0 -1.9,9.56 c 1.1,-1.03 2.1,-1.79 3.2,-2.29 1.1,-0.5 2.2,-0.75 3.3,-0.75 1.7,0 3,0.43 3.9,1.29 0.8,0.86 1.3,2.07 1.3,3.63 0,0.34 0,0.72 -0.1,1.13 0,0.42 -0.1,0.87 -0.2,1.36" />
        <path
           inkscape:connector-curvature="0"
           id="path4283"
           style="font-style:italic;fill:#ffffff;-inkscape-font-specification:Sans Bold Italic"
           d="m 130.8,42.76 -1.9,9.37 -5.7,0 4.8,-24.64 5.7,0 -0.5,2.61 c 0.9,-1.04 1.8,-1.81 2.7,-2.29 1,-0.5 2.1,-0.75 3.2,-0.75 2,0 3.6,0.63 4.8,1.91 1.1,1.27 1.7,3.01 1.7,5.21 0,1.37 -0.2,2.7 -0.6,4 -0.4,1.3 -1,2.48 -1.8,3.54 -0.9,1.34 -2,2.35 -3.3,3.04 -1.2,0.69 -2.5,1.04 -3.9,1.04 -1.2,0 -2.2,-0.25 -3.1,-0.73 -0.8,-0.5 -1.5,-1.27 -2.1,-2.31 m 6,-11.56 c -1.5,0 -2.7,0.68 -3.6,2.04 -1,1.35 -1.4,3.11 -1.4,5.28 0,0.97 0.2,1.74 0.8,2.31 0.5,0.55 1.2,0.83 2.2,0.83 1.4,0 2.6,-0.67 3.5,-2 0.9,-1.34 1.4,-3.05 1.4,-5.13 0,-1.08 -0.2,-1.91 -0.8,-2.47 -0.5,-0.57 -1.2,-0.86 -2.1,-0.86" />
        <path
           inkscape:connector-curvature="0"
           id="path4285"
           style="font-style:italic;fill:#ffffff;-inkscape-font-specification:Sans Bold Italic"
           d="m 168.6,22.29 -1,5.04 c -1.2,-0.6 -2.4,-1.04 -3.5,-1.33 -1.2,-0.29 -2.3,-0.44 -3.4,-0.44 -1.6,0 -2.8,0.24 -3.6,0.72 -0.9,0.47 -1.3,1.14 -1.3,1.99 0,0.54 0.2,0.96 0.5,1.27 0.4,0.3 1.2,0.59 2.4,0.88 l 2.5,0.62 c 2.1,0.53 3.7,1.3 4.6,2.31 1,1 1.5,2.3 1.5,3.89 0,2.58 -1,4.65 -2.9,6.22 -2,1.56 -4.6,2.34 -7.9,2.34 -1.6,0 -3.1,-0.14 -4.6,-0.43 -1.5,-0.29 -3,-0.71 -4.5,-1.28 l 1,-5.18 c 1.4,0.82 2.8,1.43 4.1,1.84 1.3,0.4 2.6,0.6 3.9,0.6 1.4,0 2.6,-0.28 3.5,-0.86 0.8,-0.57 1.3,-1.3 1.3,-2.2 0,-0.58 -0.2,-1.03 -0.6,-1.35 -0.4,-0.33 -1.3,-0.67 -2.6,-1.01 l -2.5,-0.62 c -1.8,-0.45 -3.2,-1.18 -4.1,-2.17 -0.9,-0.98 -1.4,-2.26 -1.4,-3.84 0,-2.47 1,-4.45 2.9,-5.94 1.9,-1.5 4.4,-2.25 7.6,-2.25 1.3,0 2.6,0.1 4,0.3 1.3,0.2 2.7,0.49 4.1,0.88" />
        <path
           inkscape:connector-curvature="0"
           id="path4287"
           style="font-style:italic;fill:#ffffff;-inkscape-font-specification:Sans Bold Italic"
           d="m 172.9,21.54 5.9,0 2.9,17.79 9.8,-17.79 6.4,0 -13.5,23.8 -7.3,0 -4.2,-23.8" />
        <path
           inkscape:connector-curvature="0"
           id="path4289"
           style="font-style:italic;fill:#ffffff;-inkscape-font-specification:Sans Bold Italic"
           d="m 217.9,43.57 c -1.5,0.75 -3.1,1.32 -4.8,1.69 -1.7,0.36 -3.5,0.54 -5.4,0.54 -3.3,0 -6,-0.86 -7.9,-2.57 -2,-1.72 -2.9,-4.06 -2.9,-7.03 0,-1.92 0.3,-3.72 0.9,-5.4 0.6,-1.69 1.5,-3.23 2.7,-4.62 1.4,-1.7 3.2,-2.97 5.2,-3.81 2,-0.84 4.2,-1.26 6.8,-1.26 1.4,0 2.9,0.15 4.3,0.45 1.4,0.3 2.9,0.74 4.3,1.32 l -1,4.93 c -1.3,-0.76 -2.5,-1.32 -3.8,-1.69 -1.2,-0.38 -2.5,-0.56 -3.7,-0.56 -2.7,0 -5,0.91 -6.7,2.74 -1.7,1.83 -2.6,4.18 -2.6,7.04 0,1.91 0.5,3.38 1.5,4.43 1,1.06 2.4,1.58 4.3,1.58 0.6,0 1.2,0 1.8,-0.11 0.6,-0.1 1.2,-0.21 1.8,-0.38 l 0.9,-4.62 -3.8,0 0.8,-4.12 9.5,0 -2.2,11.45" />
      </g>
    </g>
  </g>
</svg>
