<?xml version="1.0" encoding="UTF-8" standalone="no"?>
<svg
   xmlns:xhtml="http://www.w3.org/1999/xhtml/vocab#"
   xmlns:rdfs="http://www.w3.org/2000/01/rdf-schema#"
   xmlns:dc="http://purl.org/dc/elements/1.1/"
   xmlns:cc="http://creativecommons.org/ns#"
   xmlns:rdf="http://www.w3.org/1999/02/22-rdf-syntax-ns#"
   xmlns:svg="http://www.w3.org/2000/svg"
   xmlns="http://www.w3.org/2000/svg"
   xmlns:xlink="http://www.w3.org/1999/xlink"
   xmlns:sodipodi="http://sodipodi.sourceforge.net/DTD/sodipodi-0.dtd"
   xmlns:inkscape="http://www.inkscape.org/namespaces/inkscape"
   viewBox="0 0 195 82"
   id="svg3118"
   version="1.1"
   inkscape:version="0.48.1 r9760"
   width="100%"
   height="100%"
   sodipodi:docname="phpSVG.svg">
  <sodipodi:namedview
     pagecolor="#ffffff"
     bordercolor="#666666"
     borderopacity="1"
     objecttolerance="10"
     gridtolerance="10"
     guidetolerance="10"
     inkscape:pageopacity="0"
     inkscape:pageshadow="2"
     inkscape:window-width="1366"
     inkscape:window-height="745"
     id="namedview3156"
     showgrid="false"
     inkscape:zoom="2.264"
     inkscape:cx="77.4"
     inkscape:cy="-3.259"
     inkscape:window-x="-2"
     inkscape:window-y="-5"
     inkscape:window-maximized="1"
     inkscape:current-layer="svg3118" />
  <title
     id="title3120">SVG logo combined with the W3C logo, set horizontally</title>
  <desc
     id="desc3122">The logo combines three entities displayed horizontally: the W3C logo with the text 'W3C'; the drawing of a flower or star shape with eight arms; and the text 'SVG'. These three entities are set horizontally.</desc>
  <metadata
     id="metadata3124">
    <rdf:RDF>
      <cc:Work
         rdf:about="">
        <dc:title>SVG logo combined with the W3C logo, set horizontally</dc:title>
        <dc:format>image/svg+xml</dc:format>
        <rdfs:seeAlso
           rdf:resource="http://www.w3.org/2007/10/sw-logos.html" />
        <dc:date>2007-11-01</dc:date>
        <xhtml:license
           rdf:resource="http://www.w3.org/Consortium/Legal/2002/copyright-documents-20021231" />
        <cc:morePermissions
           rdf:resource="http://www.w3.org/2007/10/sw-logos.html#LogoWithW3C" />
        <cc:attributionURL
           rdf:reource="http://www.w3.org/2001/sw/" />
        <dc:description>The logo combines three entities displayed horizontally: the W3C logo with the text 'W3C'; the drawing of a flower or star shape with eight arms; and the text 'SVG'. These three entities are set horizontally.
			</dc:description>
        <dc:type
           rdf:resource="http://purl.org/dc/dcmitype/StillImage" />
      </cc:Work>
    </rdf:RDF>
  </metadata>
  <defs
     id="defs3130">
    <g
       id="SVG">
      <path
         id="S"
         d="M 5.482,31.319 C2.163,28.001 0.109,23.419 0.109,18.358 C0.109,8.232 8.322,0.024 18.443,0.024 C28.569,0.024 36.782,8.232 36.782,18.358 L26.042,18.358 C26.042,14.164 22.638,10.765 18.443,10.765 C14.249,10.765 10.850,14.164 10.850,18.358 C10.850,20.453 11.701,22.351 13.070,23.721 L13.075,23.721 C14.450,25.101 15.595,25.500 18.443,25.952 L18.443,25.952 C23.509,26.479 28.091,28.006 31.409,31.324 L31.409,31.324 C34.728,34.643 36.782,39.225 36.782,44.286 C36.782,54.412 28.569,62.625 18.443,62.625 C8.322,62.625 0.109,54.412 0.109,44.286 L10.850,44.286 C10.850,48.480 14.249,51.884 18.443,51.884 C22.638,51.884 26.042,48.480 26.042,44.286 C26.042,42.191 25.191,40.298 23.821,38.923 L23.816,38.923 C22.441,37.548 20.468,37.074 18.443,36.697 L18.443,36.692 C13.533,35.939 8.800,34.638 5.482,31.319 L5.482,31.319 L5.482,31.319 Z" />
      <path
         id="V"
         d="M 73.452,0.024 L60.482,62.625 L49.742,62.625 L36.782,0.024 L47.522,0.024 L55.122,36.687 L62.712,0.024 L73.452,0.024 Z" />
      <path
         id="G"
         d="M 91.792,25.952 L110.126,25.952 L110.126,44.286 L110.131,44.286 C110.131,54.413 101.918,62.626 91.792,62.626 C81.665,62.626 73.458,54.413 73.458,44.286 L73.458,44.286 L73.458,18.359 L73.453,18.359 C73.453,8.233 81.665,0.025 91.792,0.025 C101.913,0.025 110.126,8.233 110.126,18.359 L99.385,18.359 C99.385,14.169 95.981,10.765 91.792,10.765 C87.597,10.765 84.198,14.169 84.198,18.359 L84.198,44.286 L84.198,44.286 C84.198,48.481 87.597,51.880 91.792,51.880 C95.981,51.880 99.380,48.481 99.385,44.291 L99.385,44.286 L99.385,36.698 L91.792,36.698 L91.792,25.952 L91.792,25.952 Z" />
    </g>
    <radialGradient
       gradientTransform="matrix(1.509,0,0,1.358,-39.03,76.96)"
       gradientUnits="userSpaceOnUse"
       xlink:href="#linearGradient3798"
       id="radialGradient3870"
       fy="-48.544521"
       fx="77.914261"
       r="146"
       cy="-48.544521"
       cx="77.914261" />
    <linearGradient
       gradientUnits="userSpaceOnUse"
       id="linearGradient3798"
       y2="84"
       x2="299"
       y1="84"
       x1="150">
      <stop
         offset="0"
         style="stop-color:#dddce9;stop-opacity:1"
         id="stop3800" />
      <stop
         offset="0.37"
         style="stop-color:#5664a3;stop-opacity:1"
         id="stop3802" />
      <stop
         offset="1"
         style="stop-color:#000000;stop-opacity:1"
         id="stop3804" />
    </linearGradient>
    <radialGradient
       inkscape:collect="always"
       xlink:href="#linearGradient3798"
       id="radialGradient4253"
       gradientUnits="userSpaceOnUse"
       gradientTransform="matrix(1.509,0,0,1.358,-39.03,76.96)"
       cx="77.914261"
       cy="-48.544521"
       fx="77.914261"
       fy="-48.544521"
       r="146" />
  </defs>
  <ellipse
     d="m 296,80 c 0,42 -65.4,76 -146,76 C 69.37,156 4,122 4,80 4,38.03 69.37,4 150,4 230.6,4 296,38.03 296,80 z"
     sodipodi:ry="76"
     sodipodi:rx="146"
     sodipodi:cy="80"
     sodipodi:cx="150"
     cx="150"
     cy="80"
     rx="146"
     ry="76"
     id="ellipse3860"
     style="fill:#6c7eb7;stroke:url(#radialGradient4253);stroke-width:5.5"
     transform="matrix(0.4823,0,0,0.4823,27.68,3.635)"
     inkscape:export-filename="/home/trialforce/svn/phpsvg/example/output/phpsvg.png"
     inkscape:export-xdpi="90"
     inkscape:export-ydpi="90" />
  <g
     id="g4264"
     transform="matrix(0.8197,0,0,0.8197,12.75,6.713)"
     inkscape:export-filename="/home/trialforce/svn/phpsvg/example/output/phpsvg.png"
     inkscape:export-xdpi="90"
     inkscape:export-ydpi="90">
    <g
       style="fill:#ffffff"
       transform="matrix(0.1245,0,0,0.1245,26.17,26.17)"
       id="logo">
      <g
         style="fill:#ffffff;stroke:#000000;stroke-width:38.0086"
         id="g3141">
        <g
           style="fill:#ffffff"
           transform="translate(150,150)"
           id="svgstar">
          <path
             style="fill:#ffffff"
             inkscape:connector-curvature="0"
             d="m -84.15,-15.85 a 22.42,22.42 0 1 0 0,31.7 h 168.3 a 22.42,22.42 0 1 0 0,-31.7 z"
             id="svgbar" />
          <use
             style="fill:#ffffff"
             height="82"
             width="195"
             y="0"
             x="0"
             id="use3145"
             transform="matrix(0.7071,0.7071,-0.7071,0.7071,0,0)"
             xlink:href="#svgbar" />
          <use
             style="fill:#ffffff"
             height="82"
             width="195"
             y="0"
             x="0"
             id="use3147"
             transform="matrix(0,1,-1,0,0,0)"
             xlink:href="#svgbar" />
          <use
             style="fill:#ffffff"
             height="82"
             width="195"
             y="0"
             x="0"
             id="use3149"
             transform="matrix(-0.7071,0.7071,-0.7071,-0.7071,0,0)"
             xlink:href="#svgbar" />
        </g>
      </g>
      <use
         style="fill:#ffffff"
         height="82"
         width="195"
         y="0"
         x="0"
         id="use3151"
         xlink:href="#svgstar" />
    </g>
    <text
       transform="scale(0.8157,1.226)"
       sodipodi:linespacing="125%"
       id="text4256"
       y="45.213844"
       x="76.848465"
       style="font-size:32.6387px;font-style:normal;font-weight:bold;line-height:125%;letter-spacing:0px;word-spacing:0px;fill:#ffffff;fill-opacity:1;stroke:#000000;stroke-width:4.9999;stroke-linecap:round;stroke-linejoin:round;stroke-miterlimit:4;stroke-opacity:1;stroke-dasharray:none;stroke-dashoffset:0;font-family:Sans;-inkscape-font-specification:Sans Bold"
       xml:space="preserve"><tspan
         style="font-style:italic;fill:#ffffff;stroke:#000000;stroke-width:4.9999;stroke-linecap:round;stroke-linejoin:round;stroke-miterlimit:4;stroke-opacity:1;stroke-dasharray:none;stroke-dashoffset:0;-inkscape-font-specification:Sans Bold Italic"
         y="45.213844"
         x="76.848465"
         id="tspan4258"
         sodipodi:role="line">phpSVG</tspan></text>
    <g
       transform="scale(0.8157,1.226)"
       style="font-size:32.6403px;font-style:normal;font-weight:bold;line-height:125%;letter-spacing:0px;word-spacing:0px;fill:#ffffff;fill-opacity:1;stroke:none;font-family:Sans;-inkscape-font-specification:Sans Bold"
       id="text4260">
      <path
         d="m 84.1,42.76 -1.83,9.37 -5.74,0 4.8,-24.64 5.74,0 -0.53,2.61 c 0.87,-1.04 1.79,-1.81 2.74,-2.29 0.96,-0.5 2.01,-0.75 3.14,-0.75 2.01,0 3.6,0.63 4.77,1.91 1.17,1.27 1.75,3.01 1.75,5.21 0,1.37 -0.21,2.7 -0.62,4 -0.4,1.3 -0.99,2.48 -1.75,3.54 -0.97,1.34 -2.06,2.35 -3.29,3.04 -1.21,0.69 -2.51,1.04 -3.9,1.04 -1.22,0 -2.26,-0.25 -3.12,-0.73 -0.85,-0.5 -1.57,-1.27 -2.16,-2.31 m 6,-11.56 c -1.47,0 -2.67,0.68 -3.61,2.04 -0.92,1.35 -1.38,3.11 -1.38,5.28 0,0.97 0.26,1.74 0.78,2.31 0.53,0.55 1.26,0.83 2.2,0.83 1.43,0 2.62,-0.67 3.55,-2 0.94,-1.34 1.4,-3.05 1.4,-5.13 0,-1.08 -0.25,-1.91 -0.76,-2.47 -0.5,-0.57 -1.23,-0.86 -2.18,-0.86"
         style="font-style:italic;fill:#ffffff;-inkscape-font-specification:Sans Bold Italic"
         id="path4279" />
      <path
         d="m 121.3,34.47 -2.1,10.87 -5.7,0 1.8,-9.31 c 0.1,-0.61 0.2,-1.12 0.2,-1.53 0.1,-0.43 0.2,-0.76 0.2,-1 0,-0.68 -0.2,-1.21 -0.6,-1.58 -0.4,-0.37 -0.9,-0.56 -1.6,-0.56 -1.2,0 -2.2,0.46 -3.1,1.39 -0.8,0.91 -1.4,2.18 -1.7,3.81 l -1.7,8.78 -5.7,0 4.8,-24.8 5.7,0 -1.9,9.56 c 1.1,-1.03 2.1,-1.79 3.2,-2.29 1.1,-0.5 2.2,-0.75 3.3,-0.75 1.7,0 3,0.43 3.9,1.29 0.8,0.86 1.3,2.07 1.3,3.63 0,0.34 0,0.72 -0.1,1.13 0,0.42 -0.1,0.87 -0.2,1.36"
         style="font-style:italic;fill:#ffffff;-inkscape-font-specification:Sans Bold Italic"
         id="path4281" />
      <path
         d="m 130.8,42.76 -1.9,9.37 -5.7,0 4.8,-24.64 5.7,0 -0.5,2.61 c 0.9,-1.04 1.8,-1.81 2.7,-2.29 1,-0.5 2.1,-0.75 3.2,-0.75 2,0 3.6,0.63 4.8,1.91 1.1,1.27 1.7,3.01 1.7,5.21 0,1.37 -0.2,2.7 -0.6,4 -0.4,1.3 -1,2.48 -1.8,3.54 -0.9,1.34 -2,2.35 -3.3,3.04 -1.2,0.69 -2.5,1.04 -3.9,1.04 -1.2,0 -2.2,-0.25 -3.1,-0.73 -0.8,-0.5 -1.5,-1.27 -2.1,-2.31 m 6,-11.56 c -1.5,0 -2.7,0.68 -3.6,2.04 -1,1.35 -1.4,3.11 -1.4,5.28 0,0.97 0.2,1.74 0.8,2.31 0.5,0.55 1.2,0.83 2.2,0.83 1.4,0 2.6,-0.67 3.5,-2 0.9,-1.34 1.4,-3.05 1.4,-5.13 0,-1.08 -0.2,-1.91 -0.8,-2.47 -0.5,-0.57 -1.2,-0.86 -2.1,-0.86"
         style="font-style:italic;fill:#ffffff;-inkscape-font-specification:Sans Bold Italic"
         id="path4283" />
      <path
         d="m 168.6,22.29 -1,5.04 c -1.2,-0.6 -2.4,-1.04 -3.5,-1.33 -1.2,-0.29 -2.3,-0.44 -3.4,-0.44 -1.6,0 -2.8,0.24 -3.6,0.72 -0.9,0.47 -1.3,1.14 -1.3,1.99 0,0.54 0.2,0.96 0.5,1.27 0.4,0.3 1.2,0.59 2.4,0.88 l 2.5,0.62 c 2.1,0.53 3.7,1.3 4.6,2.31 1,1 1.5,2.3 1.5,3.89 0,2.58 -1,4.65 -2.9,6.22 -2,1.56 -4.6,2.34 -7.9,2.34 -1.6,0 -3.1,-0.14 -4.6,-0.43 -1.5,-0.29 -3,-0.71 -4.5,-1.28 l 1,-5.18 c 1.4,0.82 2.8,1.43 4.1,1.84 1.3,0.4 2.6,0.6 3.9,0.6 1.4,0 2.6,-0.28 3.5,-0.86 0.8,-0.57 1.3,-1.3 1.3,-2.2 0,-0.58 -0.2,-1.03 -0.6,-1.35 -0.4,-0.33 -1.3,-0.67 -2.6,-1.01 l -2.5,-0.62 c -1.8,-0.45 -3.2,-1.18 -4.1,-2.17 -0.9,-0.98 -1.4,-2.26 -1.4,-3.84 0,-2.47 1,-4.45 2.9,-5.94 1.9,-1.5 4.4,-2.25 7.6,-2.25 1.3,0 2.6,0.1 4,0.3 1.3,0.2 2.7,0.49 4.1,0.88"
         style="font-style:italic;fill:#ffffff;-inkscape-font-specification:Sans Bold Italic"
         id="path4285" />
      <path
         d="m 172.9,21.54 5.9,0 2.9,17.79 9.8,-17.79 6.4,0 -13.5,23.8 -7.3,0 -4.2,-23.8"
         style="font-style:italic;fill:#ffffff;-inkscape-font-specification:Sans Bold Italic"
         id="path4287" />
      <path
         d="m 217.9,43.57 c -1.5,0.75 -3.1,1.32 -4.8,1.69 -1.7,0.36 -3.5,0.54 -5.4,0.54 -3.3,0 -6,-0.86 -7.9,-2.57 -2,-1.72 -2.9,-4.06 -2.9,-7.03 0,-1.92 0.3,-3.72 0.9,-5.4 0.6,-1.69 1.5,-3.23 2.7,-4.62 1.4,-1.7 3.2,-2.97 5.2,-3.81 2,-0.84 4.2,-1.26 6.8,-1.26 1.4,0 2.9,0.15 4.3,0.45 1.4,0.3 2.9,0.74 4.3,1.32 l -1,4.93 c -1.3,-0.76 -2.5,-1.32 -3.8,-1.69 -1.2,-0.38 -2.5,-0.56 -3.7,-0.56 -2.7,0 -5,0.91 -6.7,2.74 -1.7,1.83 -2.6,4.18 -2.6,7.04 0,1.91 0.5,3.38 1.5,4.43 1,1.06 2.4,1.58 4.3,1.58 0.6,0 1.2,-0 1.8,-0.11 0.6,-0.1 1.2,-0.21 1.8,-0.38 l 0.9,-4.62 -3.8,0 0.8,-4.12 9.5,0 -2.2,11.45"
         style="font-style:italic;fill:#ffffff;-inkscape-font-specification:Sans Bold Italic"
         id="path4289" />
    </g>
  </g>
</svg>
